<svg version="1" xmlns="http://www.w3.org/2000/svg" width="1365.333" height="1365.333" viewBox="0 0 1024.000000 1024.000000"><path d="M505.8 119.3c-6.7 2.5-9.4 5-28.4 25.2-10.3 11-46.5 49.5-80.4 85.5-33.9 36.1-64.6 68.9-68.3 72.9-13.3 14.8-15.3 25.7-7.8 41.8 3.4 7.1 9.7 13.7 16.1 16.7 4.1 1.9 6.8 2.1 31.9 2.6l27.5.5-7 8c-35.3 40.2-113 130.3-115.7 134.1-7.2 10-8.4 20.4-3.7 32.6 2.8 7.6 10.3 15.8 17.2 18.9 5.1 2.3 6.4 2.4 34.2 2.9l28.9.5-59.9 67.5c-32.9 37.1-61.8 69.8-64.2 72.6-7.7 9.3-10 20.7-6.3 31.6 3.6 10.6 10 18 19 22.2 4.6 2.1 5.1 2.1 114.9 2.4l110.2.2v37.5L440.5 834c-24.2 39.7-26.1 43.6-24.8 51.4 1 6 6.2 13.7 11.7 17.1l4.9 3h162.2l4.7-2.8c8-4.7 12.3-12.3 12.2-21.7-.1-3.2-.8-7-1.9-9-1-1.9-11.8-20-24.1-40.1L563 795.4V758l110.3-.2c109.7-.3 110.2-.3 114.8-2.4 9-4.2 15.4-11.6 19-22.2 2.4-7 2.4-13.8 0-20.7-2.4-6.9-4.2-9.3-23.7-31-8.8-9.9-36.4-41-61.4-69l-45.4-51 29-.5c27.7-.5 29.1-.6 34.1-2.9 11.1-5 19.4-17.8 20.1-30.9.5-8.3-.8-12.3-6.6-20.6-2.6-3.8-77.9-91.2-115.6-134.1l-7-8 27.5-.5c25.4-.5 27.7-.7 32.1-2.7 9.6-4.4 17.9-16 19.8-27.6 1.8-11.1-1.4-19.7-11.5-30.7-3.8-4.1-34.6-37-68.5-73s-70.1-74.5-80.4-85.5c-12.2-13.1-20.4-21-23.6-22.8-6-3.5-14.6-4.4-20.2-2.4z"/></svg>