<?xml version="1.0" standalone="no"?>
<!DOCTYPE svg PUBLIC "-//W3C//DTD SVG 20010904//EN"
 "http://www.w3.org/TR/2001/REC-SVG-20010904/DTD/svg10.dtd">
<svg version="1.0" xmlns="http://www.w3.org/2000/svg"
 width="1123.000000pt" height="1123.000000pt" viewBox="0 0 1123.000000 1123.000000"
 preserveAspectRatio="xMidYMid meet">
<metadata>
Created by potrace 1.11, written by Peter Selinger 2001-2013
</metadata>
<g transform="translate(0.000000,1123.000000) scale(0.100000,-0.100000)"
fill="#000000" stroke="none">
<path d="M5665 8084 c-8 -9 -21 -36 -27 -60 -8 -30 -18 -44 -30 -45 -10 -1
-21 -2 -25 -3 -12 -2 -107 -49 -113 -55 -13 -15 -87 -47 -105 -46 -30 2 -104
25 -109 33 -3 5 -22 9 -43 10 -27 2 -45 -3 -61 -18 -12 -11 -36 -23 -54 -27
-18 -3 -53 -14 -76 -25 -24 -10 -48 -16 -53 -12 -5 3 -9 2 -9 -3 0 -4 -21 -9
-48 -10 -92 -4 -248 -51 -329 -98 -65 -39 -126 -104 -119 -128 6 -22 -55 -89
-144 -157 -25 -19 -51 -40 -58 -47 -7 -7 -18 -13 -23 -13 -5 0 -4 -10 3 -22
18 -35 18 -45 -4 -65 -11 -10 -24 -28 -29 -41 -7 -18 -13 -21 -26 -14 -26 14
-142 6 -184 -12 -20 -8 -52 -33 -72 -55 -35 -39 -36 -42 -32 -101 4 -48 2 -60
-10 -60 -8 0 -15 -6 -15 -13 0 -7 -5 -18 -12 -25 -6 -6 -13 -22 -15 -34 -2
-12 -10 -51 -18 -86 -8 -35 -15 -74 -15 -88 0 -13 -5 -24 -11 -24 -5 0 -8 -4
-5 -9 3 -4 -20 -33 -52 -64 -31 -31 -63 -63 -69 -71 -20 -23 -16 -73 7 -89 40
-28 45 -67 21 -186 -12 -60 -10 -65 33 -105 45 -43 44 -65 -4 -88 -19 -9 -29
-17 -22 -18 6 0 12 -5 12 -11 0 -5 -4 -8 -9 -5 -5 3 -14 -1 -21 -8 -15 -19 1
-51 38 -70 21 -12 23 -15 9 -16 -19 0 -76 -35 -89 -55 -12 -16 -9 -25 7 -25
10 0 15 -10 15 -29 0 -16 4 -41 10 -56 8 -22 6 -30 -18 -53 -44 -44 -35 -88
15 -76 18 5 21 2 16 -14 -3 -12 2 -25 15 -33 27 -19 40 -50 32 -74 -4 -11 -10
-30 -15 -42 -4 -13 -11 -23 -15 -23 -13 0 -61 -106 -55 -122 3 -8 16 -15 28
-14 41 3 108 -40 150 -95 39 -51 39 -103 2 -135 -32 -27 -38 -28 -67 -13 -11
6 -22 8 -25 6 -3 -3 24 -24 60 -47 70 -43 81 -58 69 -91 -26 -68 28 -142 143
-198 39 -18 75 -34 80 -35 39 -9 62 -29 59 -54 -5 -44 21 -89 63 -110 21 -11
41 -20 46 -21 4 -1 8 -1 10 -2 6 -2 36 -7 71 -13 21 -4 50 -9 63 -12 23 -6 50
-45 59 -85 16 -73 42 -164 59 -202 15 -37 86 -116 105 -118 19 -3 25 -5 57
-22 41 -22 43 -22 37 7 -5 30 15 47 47 40 13 -3 48 -8 77 -10 29 -2 67 -10 86
-18 29 -12 123 -78 136 -95 13 -17 85 -51 118 -56 27 -5 47 0 72 14 59 34 114
59 140 63 24 3 25 1 23 -47 -2 -27 -3 -79 -2 -115 4 -353 1 -448 -20 -527 -6
-21 -12 -49 -15 -63 -3 -14 -8 -36 -11 -50 -24 -102 -47 -313 -60 -565 -5 -81
-8 -111 -20 -180 -8 -44 -16 -79 -21 -87 -3 -5 -7 -21 -10 -36 -2 -15 -9 -49
-14 -77 -5 -27 -12 -63 -15 -80 -2 -16 -7 -41 -9 -55 -5 -26 -10 -58 -22 -145
-3 -27 -8 -52 -10 -54 -2 -2 3 -16 11 -32 25 -48 108 -67 295 -67 85 0 176 3
203 8 26 4 47 3 47 -2 0 -5 6 -6 13 -1 14 9 14 9 93 17 32 4 77 9 99 13 22 3
49 7 60 8 11 1 36 5 57 9 34 7 37 11 44 54 4 26 9 54 11 62 2 8 5 119 7 245 1
127 5 239 8 250 3 11 9 42 12 69 4 27 9 53 11 56 5 8 17 149 18 200 0 19 -3
71 -8 115 -17 158 -11 269 25 485 25 151 32 199 36 270 9 165 15 236 19 251 6
17 39 31 49 21 9 -8 56 -9 56 0 0 4 6 5 14 2 19 -7 128 13 165 32 39 20 71 64
78 111 l6 36 22 -25 c12 -14 33 -33 47 -42 25 -17 26 -16 54 18 26 30 34 34
74 32 25 -2 54 1 66 7 33 14 60 70 63 127 1 12 16 15 69 16 56 1 212 38 212
50 0 2 -16 2 -36 1 -33 -2 -37 1 -41 25 -3 21 3 32 28 50 17 13 35 24 40 24 5
1 10 2 12 4 3 3 27 7 77 15 97 14 123 26 172 78 26 29 48 57 48 64 0 7 6 16
14 20 7 4 26 28 41 53 15 25 31 47 34 50 13 10 72 130 95 192 16 42 30 64 42
67 33 6 43 21 40 64 -2 35 3 49 31 81 34 41 70 108 78 145 3 12 8 31 11 44 9
32 12 213 4 257 -6 30 -3 42 17 64 30 35 29 51 -3 89 -23 28 -24 32 -10 43 9
6 16 14 16 17 0 4 -25 33 -56 64 -53 54 -90 115 -81 131 3 4 8 41 11 82 8 84
15 97 60 108 40 11 43 32 11 71 -15 17 -24 31 -21 31 4 0 1 10 -6 23 -16 29
-16 35 -2 84 6 23 10 44 7 46 -2 3 -6 19 -8 35 -2 17 -12 48 -23 70 -10 21
-17 47 -16 58 21 136 11 264 -24 291 -30 24 -89 52 -96 46 -17 -17 -15 35 3
108 11 45 18 85 16 90 -3 4 -1 10 3 13 5 3 9 20 8 38 -1 28 -8 36 -41 53 -34
17 -83 60 -120 107 -6 7 -27 54 -47 103 -63 156 -77 183 -122 227 -52 51 -79
74 -86 71 -31 -10 -119 -13 -124 -4 -7 11 10 52 28 63 6 4 4 14 -9 27 -10 12
-20 19 -23 16 -3 -3 -11 0 -18 5 -6 6 -20 12 -30 14 -77 14 -121 18 -234 21
-124 3 -130 4 -152 29 -27 29 -95 44 -173 38 -107 -9 -501 -5 -536 5 -25 7
-42 7 -54 0 -38 -21 -90 -8 -176 43 -89 53 -118 60 -144 34z"/>
</g>
</svg>
